<svg width="27" height="31" viewBox="0 0 27 31" fill="none" xmlns="http://www.w3.org/2000/svg">
<path fill-rule="evenodd" clip-rule="evenodd" d="M10.9667 3.70054C6.60022 4.82633 3.37337 8.7976 3.37337 13.5259V20.2904C3.37337 20.9137 2.86867 21.4195 2.25 21.4195C1.00615 21.4195 0 22.4311 0 23.6743C0 24.9176 1.00941 25.9292 2.25651 25.9292H24.7435C25.9906 25.9292 27 24.9176 27 23.6743C27 22.4311 25.9873 21.4195 24.75 21.4195C24.1281 21.4195 23.6266 20.917 23.6266 20.2904V13.5259C23.6266 8.7976 20.3998 4.82633 16.0333 3.70054V2.5356C16.0333 1.13244 14.9001 0.00012207 13.5033 0.00012207C12.1064 0.00012207 10.9732 1.1357 10.9732 2.5356V3.70054H10.9667ZM9.56006 27.055H17.4334C17.4334 29.2348 15.6719 31.0001 13.4967 31.0001C11.3216 31.0001 9.56006 29.2348 9.56006 27.055Z" fill="#414141"/>
</svg>
