<svg width="276" height="272" viewBox="0 0 276 272" fill="none" xmlns="http://www.w3.org/2000/svg">
<path d="M131.511 83.7638L124.523 76.3664L114.973 82.0367C113.049 80.6128 111.033 79.3658 108.944 78.309L109.693 67.2328L99.9474 64.3226L94.5114 74.0165C92.1626 73.7534 89.7974 73.6865 87.4382 73.8173L82.546 63.8321L72.6545 66.1864L72.7912 77.2879C70.6459 78.2258 68.566 79.3569 66.5664 80.6693L57.3449 74.4683L49.9583 81.4585L55.629 91.0201C54.2087 92.9449 52.9638 94.9619 51.9075 97.0517L40.8394 96.2951L37.9364 106.047L47.6243 111.494C47.3629 113.844 47.2975 116.212 47.4282 118.574L37.4551 123.464L39.8143 133.364L50.9061 133.235C51.8436 135.383 52.9756 137.465 54.2875 139.469L48.0968 148.694L55.0853 156.092L64.635 150.422C66.5589 151.844 68.575 153.092 70.6638 154.149L69.915 165.225L79.6609 168.136L85.0968 158.442C87.4442 158.705 89.8108 158.772 92.17 158.642L97.0623 168.628L106.954 166.272L106.817 155.17C108.962 154.232 111.042 153.101 113.042 151.789L122.263 157.99L129.65 151L123.979 141.438C125.4 139.513 126.646 137.496 127.701 135.407L138.769 136.163L141.672 126.411L131.984 120.965C132.245 118.615 132.311 116.248 132.18 113.886L142.155 108.996L139.795 99.0939L128.704 99.2232C127.766 97.0755 126.634 94.9931 125.321 92.991L131.511 83.7653V83.7638ZM107.796 135.27C97.294 145.209 80.7261 144.739 70.7901 134.223C60.854 123.706 61.3131 107.125 71.8137 97.1855C82.3157 87.2463 98.8837 87.716 108.82 98.2333C118.756 108.751 118.297 125.332 107.796 135.271V135.27Z" fill="white"/>
<path d="M97.0641 168.959C96.9393 168.959 96.8219 168.889 96.7655 168.772L91.9698 158.984C89.7443 159.094 87.4965 159.03 85.2814 158.795L79.9524 168.296C79.8766 168.433 79.7162 168.497 79.5661 168.452L69.8203 165.542C69.6717 165.497 69.5722 165.355 69.5826 165.2L70.3165 154.342C68.3569 153.338 66.4419 152.153 64.6146 150.817L55.255 156.374C55.1213 156.453 54.9504 156.429 54.8435 156.316L47.855 148.919C47.748 148.806 47.7332 148.633 47.8208 148.504L53.8882 139.461C52.6566 137.562 51.5825 135.58 50.6896 133.566L39.8176 133.693C39.6691 133.7 39.5264 133.589 39.4893 133.437L37.1301 123.537C37.0944 123.385 37.1672 123.229 37.3069 123.161L47.0824 118.367C46.971 116.141 47.0334 113.892 47.2681 111.673L37.7719 106.334C37.6367 106.258 37.5713 106.097 37.6159 105.949L40.5188 96.1969C40.5634 96.0468 40.7045 95.9502 40.8605 95.9591L51.7087 96.7008C52.713 94.7388 53.8956 92.8215 55.2282 90.9977L49.6704 81.6264C49.5902 81.4926 49.6155 81.3217 49.7284 81.2147L57.115 74.2244C57.2279 74.1174 57.4003 74.1026 57.5295 74.1903L66.5682 80.2679C68.4639 79.0387 70.4428 77.9626 72.4558 77.0693L72.3221 66.1878C72.3206 66.0318 72.4261 65.895 72.5777 65.8594L82.4691 63.505C82.6206 63.4678 82.7766 63.5422 82.845 63.6819L87.6406 73.4694C89.8647 73.3594 92.1124 73.4218 94.329 73.6582L99.6581 64.1575C99.7338 64.0208 99.8943 63.9568 100.044 64.0014L109.79 66.9117C109.939 66.9563 110.038 67.0975 110.028 67.2535L109.294 78.1112C111.254 79.116 113.17 80.3021 114.994 81.6368L124.354 76.0794C124.488 75.9991 124.659 76.0244 124.766 76.1374L131.754 83.5349C131.861 83.6478 131.876 83.8202 131.788 83.9495L125.721 92.9924C126.951 94.8919 128.027 96.8732 128.919 98.8872L139.791 98.7609C139.943 98.7683 140.083 98.8649 140.12 99.0165L142.479 108.918C142.515 109.07 142.442 109.226 142.302 109.295L132.527 114.088C132.638 116.316 132.576 118.566 132.341 120.782L141.837 126.121C141.972 126.197 142.038 126.358 141.993 126.506L139.09 136.258C139.046 136.408 138.904 136.505 138.748 136.496L127.9 135.754C126.897 137.713 125.715 139.631 124.381 141.459L129.939 150.83C130.019 150.964 129.994 151.135 129.881 151.242L122.494 158.232C122.381 158.339 122.209 158.354 122.079 158.266L113.041 152.189C111.144 153.419 109.165 154.494 107.153 155.386L107.287 166.267C107.288 166.423 107.183 166.56 107.031 166.596L97.1399 168.952C97.1146 168.957 97.0879 168.96 97.0626 168.96L97.0641 168.959ZM92.1719 158.306C92.2981 158.306 92.4155 158.378 92.4705 158.494L97.2454 168.24L106.618 166.007L106.486 155.172C106.485 155.038 106.563 154.916 106.685 154.863C108.796 153.94 110.875 152.811 112.861 151.508C112.972 151.435 113.118 151.435 113.229 151.509L122.23 157.562L129.228 150.937L123.693 141.606C123.625 141.49 123.632 141.346 123.711 141.237C125.122 139.326 126.364 137.312 127.403 135.253C127.463 135.134 127.588 135.063 127.723 135.071L138.526 135.809L141.276 126.567L131.819 121.251C131.702 121.185 131.637 121.056 131.651 120.924C131.91 118.6 131.975 116.237 131.846 113.899C131.839 113.765 131.911 113.641 132.032 113.581L141.766 108.808L139.53 99.4253L128.704 99.5516C128.582 99.5516 128.448 99.4743 128.395 99.3524C127.471 97.2374 126.342 95.1565 125.039 93.1693C124.966 93.0578 124.966 92.9121 125.04 92.8007L131.082 83.7964L124.459 76.7869L115.139 82.3205C115.024 82.3889 114.879 82.3815 114.77 82.3027C112.861 80.8907 110.848 79.6466 108.789 78.6047C108.67 78.5437 108.597 78.4189 108.606 78.2851L109.337 67.4735L100.102 64.7149L94.797 74.1754C94.7316 74.2928 94.6009 74.3597 94.4702 74.3434C92.1466 74.0832 89.7859 74.0164 87.452 74.1457C87.3212 74.1531 87.1935 74.0803 87.134 73.9599L82.3592 64.214L72.9862 66.445L73.1184 77.2804C73.1199 77.4141 73.0412 77.536 72.9194 77.5895C70.8053 78.514 68.7269 79.6421 66.7435 80.9442C66.6321 81.017 66.4865 81.017 66.3751 80.9427L57.375 74.8903L50.3761 81.5149L55.9102 90.8476C55.9785 90.9635 55.9711 91.1077 55.8923 91.2162C54.4839 93.1247 53.2419 95.1387 52.2005 97.2002C52.1396 97.3191 52.0148 97.3905 51.8796 97.383L41.0774 96.6443L38.3275 105.886L47.7837 111.203C47.901 111.268 47.9664 111.398 47.9515 111.53C47.693 113.856 47.6277 116.219 47.7569 118.554C47.7643 118.688 47.6916 118.813 47.5712 118.872L37.8372 123.645L40.0732 133.028L50.8991 132.902C51.0432 132.899 51.1546 132.979 51.2081 133.101C52.1322 135.216 53.2612 137.297 54.5642 139.284C54.637 139.396 54.637 139.541 54.5627 139.653L48.5205 148.657L55.1436 155.667L64.4645 150.133C64.5804 150.065 64.7245 150.072 64.833 150.151C66.7435 151.564 68.7566 152.808 70.8142 153.849C70.933 153.91 71.0058 154.035 70.9969 154.168L70.266 164.98L79.5008 167.739L84.806 158.278C84.8714 158.161 84.9992 158.094 85.1344 158.11C87.4564 158.37 89.8171 158.437 92.1526 158.309C92.1585 158.309 92.1644 158.309 92.1704 158.309L92.1719 158.306ZM89.8394 142.759C89.5839 142.759 89.3269 142.756 89.0713 142.749C81.9922 142.548 75.4138 139.602 70.5483 134.451C60.5023 123.818 60.9673 106.991 71.5852 96.9416C76.7286 92.0738 83.4615 89.4995 90.5391 89.7031C97.6183 89.9038 104.197 92.8497 109.062 98.0013C119.108 108.635 118.643 125.461 108.025 135.511C103.068 140.201 96.6362 142.759 89.8394 142.759ZM89.7711 90.3586C83.1451 90.3586 76.8756 92.8512 72.0428 97.4246C61.6908 107.221 61.2377 123.624 71.0311 133.991C75.7763 139.014 82.1883 141.887 89.0891 142.082C95.99 142.276 102.552 139.77 107.566 135.026C117.918 125.23 118.371 108.826 108.578 98.4591C103.833 93.4368 97.4207 90.5637 90.5198 90.369C90.2702 90.3616 90.0192 90.3586 89.7711 90.3586Z" fill="#B6B6B6"/>
<path d="M191.503 30.2366L185.687 26.2622L180.062 31.5045C178.551 30.8252 177.005 30.2783 175.436 29.871L174.313 22.2684L167.293 21.7348L165.042 29.0922C163.415 29.2601 161.805 29.5633 160.229 29.9988L155.451 23.9658L149.107 27.0158L150.833 34.5054C149.52 35.4552 148.28 36.5268 147.121 37.7099L139.97 34.874L136.002 40.69L141.245 46.3218C140.568 47.8334 140.022 49.3806 139.615 50.9502L132.018 52.0694L131.49 59.0938L138.844 61.3516C139.014 62.9791 139.318 64.5903 139.753 66.1688L133.728 70.9459L136.781 77.2955L144.264 75.5743C145.215 76.8882 146.286 78.1308 147.468 79.2916L144.638 86.4439L150.455 90.4184L156.079 85.176C157.59 85.8553 159.137 86.4023 160.706 86.8095L161.829 94.4121L168.848 94.9457L171.099 87.5884C172.726 87.4204 174.336 87.1172 175.913 86.6817L180.69 92.7147L187.034 89.6648L185.308 82.1751C186.621 81.2254 187.862 80.1537 189.02 78.9706L196.171 81.8065L200.139 75.9905L194.896 70.3588C195.574 68.8472 196.119 67.2999 196.526 65.7303L204.124 64.6111L204.651 57.5867L197.297 55.3304C197.128 53.7029 196.823 52.0917 196.388 50.5132L202.415 45.7361L199.362 39.3865L191.879 41.1077C190.928 39.7938 189.857 38.5512 188.674 37.3904L191.505 30.2381L191.503 30.2366ZM183.042 68.5677C177.401 76.8377 166.125 78.9602 157.858 73.3106C149.588 67.6611 147.459 56.3768 153.099 48.1083C158.74 39.8384 170.016 37.7159 178.284 43.3654C186.553 49.015 188.682 60.2993 183.042 68.5677Z" fill="white"/>
<path d="M168.85 95.2756C168.841 95.2756 168.833 95.2756 168.824 95.2756L161.805 94.742C161.65 94.7301 161.522 94.6127 161.5 94.4581L160.41 87.074C158.975 86.689 157.542 86.1837 156.146 85.5683L150.682 90.6605C150.567 90.766 150.395 90.7794 150.267 90.6917L144.451 86.7173C144.322 86.6296 144.271 86.4646 144.329 86.3189L147.077 79.3718C145.996 78.2942 145.005 77.1438 144.124 75.9458L136.855 77.6179C136.703 77.6521 136.547 77.5778 136.48 77.4381L133.427 71.0885C133.36 70.9473 133.399 70.7793 133.521 70.6827L139.374 66.0424C138.985 64.5902 138.703 63.0994 138.536 61.6042L131.392 59.4118C131.243 59.3657 131.145 59.223 131.157 59.0685L131.685 52.044C131.697 51.888 131.814 51.7616 131.968 51.7393L139.348 50.6528C139.731 49.217 140.236 47.7842 140.85 46.3885L135.757 40.9173C135.651 40.8029 135.638 40.6305 135.726 40.5027L139.694 34.6866C139.781 34.5573 139.946 34.5068 140.092 34.5648L147.037 37.3189C148.113 36.2384 149.261 35.247 150.459 34.3656L148.783 27.0915C148.747 26.9399 148.823 26.7838 148.963 26.7154L155.306 23.6655C155.446 23.5986 155.615 23.6372 155.712 23.7591L160.355 29.6197C161.806 29.2303 163.296 28.9509 164.789 28.7844L166.975 21.6381C167.021 21.4895 167.163 21.3914 167.318 21.4033L174.338 21.9369C174.492 21.9487 174.62 22.0662 174.642 22.2207L175.733 29.6063C177.168 29.9913 178.6 30.4967 179.996 31.112L185.461 26.0198C185.575 25.9128 185.747 25.9009 185.875 25.9886L191.691 29.9631C191.821 30.0508 191.871 30.2157 191.813 30.3614L189.065 37.3085C190.146 38.3861 191.137 39.5365 192.018 40.7345L199.288 39.0624C199.438 39.0282 199.595 39.1025 199.662 39.2422L202.715 45.5919C202.782 45.7331 202.743 45.901 202.621 45.9976L196.766 50.638C197.156 52.0916 197.438 53.5824 197.604 55.0762L204.749 57.2685C204.897 57.3146 204.995 57.4573 204.984 57.6119L204.456 64.6363C204.444 64.7923 204.327 64.9187 204.172 64.941L196.793 66.0275C196.41 67.4633 195.905 68.8946 195.291 70.2918L200.384 75.763C200.489 75.8774 200.503 76.0498 200.415 76.1777L196.447 81.9937C196.359 82.123 196.194 82.1735 196.049 82.1156L189.103 79.3614C188.028 80.442 186.878 81.4333 185.682 82.3133L187.358 89.5874C187.393 89.739 187.318 89.8951 187.178 89.9634L180.834 93.0134C180.693 93.0803 180.525 93.0416 180.429 92.9197L175.786 87.0591C174.335 87.4485 172.845 87.728 171.351 87.8944L169.165 95.0407C169.121 95.1819 168.991 95.2771 168.847 95.2771L168.85 95.2756ZM162.12 94.0969L168.609 94.5904L170.781 87.4887C170.82 87.3608 170.932 87.2687 171.065 87.2553C172.669 87.0889 174.269 86.7886 175.823 86.3591C175.952 86.3234 176.091 86.368 176.172 86.4735L180.785 92.2985L186.649 89.4789L184.984 82.2493C184.954 82.1185 185.005 81.9833 185.113 81.9045C186.401 80.9726 187.636 79.9069 188.784 78.7371C188.878 78.642 189.02 78.6108 189.145 78.6613L196.047 81.3992L199.714 76.0231L194.652 70.5861C194.562 70.488 194.538 70.3453 194.591 70.2219C195.261 68.7267 195.804 67.1868 196.202 65.647C196.236 65.5177 196.343 65.4196 196.477 65.4003L203.81 64.3212L204.297 57.8289L197.197 55.6499C197.07 55.6113 196.977 55.4983 196.964 55.366C196.798 53.7622 196.495 52.16 196.065 50.6038C196.03 50.4745 196.074 50.3363 196.18 50.253L201.997 45.6409L199.176 39.7714L191.951 41.4331C191.821 41.4628 191.686 41.4123 191.607 41.3038C190.674 40.0137 189.609 38.777 188.438 37.6281C188.343 37.5344 188.312 37.3918 188.362 37.2669L191.094 30.3629L185.718 26.6902L180.288 31.7511C180.19 31.8433 180.045 31.8656 179.924 31.8106C178.429 31.1388 176.89 30.5947 175.349 30.1949C175.22 30.1607 175.124 30.0537 175.103 29.9214L174.018 22.5819L167.529 22.0899L165.357 29.1916C165.318 29.3195 165.205 29.4116 165.073 29.425C163.469 29.5915 161.869 29.8932 160.313 30.3213C160.184 30.3569 160.046 30.3123 159.964 30.2068L155.351 24.3819L149.487 27.2014L151.153 34.431C151.182 34.5618 151.132 34.697 151.023 34.7758C149.734 35.7092 148.499 36.7749 147.352 37.9432C147.259 38.0383 147.116 38.068 146.991 38.019L140.089 35.2812L136.422 40.6572L141.484 46.0942C141.575 46.1923 141.598 46.335 141.545 46.4584C140.875 47.9522 140.333 49.492 139.934 51.0333C139.9 51.1627 139.793 51.2607 139.66 51.2801L132.326 52.3591L131.839 58.8515L138.939 61.0304C139.067 61.0691 139.159 61.182 139.172 61.3143C139.34 62.921 139.642 64.5233 140.071 66.0765C140.107 66.2058 140.062 66.3441 139.957 66.4273L134.139 71.0394L136.96 76.9089L144.185 75.2472C144.316 75.2175 144.451 75.268 144.53 75.3765C145.463 76.6667 146.528 77.9033 147.698 79.0522C147.794 79.1459 147.825 79.2886 147.774 79.4134L145.042 86.3174L150.419 89.9902L155.849 84.9292C155.947 84.8385 156.091 84.8148 156.213 84.8698C157.707 85.5416 159.246 86.0856 160.787 86.4854C160.916 86.5196 161.013 86.6266 161.034 86.7589L162.118 94.0984L162.12 94.0969ZM168.044 76.8123C164.366 76.8123 160.774 75.7095 157.669 73.5885C149.261 67.8438 147.088 56.3306 152.824 47.9224C155.602 43.8499 159.801 41.1046 164.645 40.192C169.488 39.2794 174.4 40.3094 178.472 43.0919C186.879 48.8365 189.053 60.3497 183.318 68.7579C180.54 72.8304 176.342 75.5757 171.497 76.4883C170.346 76.7053 169.191 76.8123 168.044 76.8123ZM168.095 40.5339C166.99 40.5339 165.877 40.6379 164.767 40.846C160.098 41.7259 156.052 44.3716 153.374 48.297C147.846 56.402 149.94 67.499 158.044 73.037C161.97 75.7199 166.703 76.7127 171.372 75.8328C176.042 74.9529 180.089 72.3073 182.766 68.3818C188.294 60.2769 186.199 49.1799 178.095 43.6418C175.103 41.5966 171.64 40.5339 168.093 40.5339H168.095Z" fill="#B6B6B6"/>
<path d="M111.241 230.462L90.7766 243.738C90.7602 243.748 90.738 243.754 90.7157 243.754L40.0372 243.629C39.96 243.629 39.9229 243.568 39.9763 243.534L60.2896 230.356C60.3059 230.346 60.3282 230.34 60.3505 230.34L111.18 230.367C111.258 230.367 111.296 230.428 111.241 230.462Z" fill="white"/>
<path d="M90.7151 244.087L40.0351 243.962C39.8435 243.962 39.6816 243.848 39.6325 243.677C39.585 243.517 39.6504 243.347 39.7945 243.253L60.1077 230.077C60.1776 230.031 60.2608 230.007 60.3499 230.007L111.18 230.034C111.372 230.034 111.533 230.148 111.584 230.318C111.632 230.478 111.566 230.648 111.422 230.742L90.9572 244.017C90.8874 244.064 90.8027 244.087 90.7151 244.087ZM40.9518 243.298L90.6527 243.421L110.263 230.7L60.4138 230.673L40.9518 243.298ZM60.4732 230.634H60.4702C60.4702 230.634 60.4717 230.634 60.4732 230.634Z" fill="black"/>
<path d="M111.286 230.377V257.647L90.9595 270.841C90.8822 270.892 90.75 270.856 90.75 270.785V243.753C90.75 243.753 110.993 230.386 111.288 230.377H111.286Z" fill="#F6A3B6"/>
<path d="M90.7504 270.865L39.916 270.741L39.9591 243.657L90.7504 243.754C90.7504 243.754 90.7504 270.911 90.7504 270.865Z" fill="white"/>
<path d="M90.7492 271.198L39.9148 271.075C39.7306 271.075 39.582 270.925 39.582 270.74L39.6251 243.656C39.6251 243.567 39.6608 243.482 39.7232 243.42C39.7856 243.357 39.8747 243.322 39.9594 243.323L90.7507 243.42C90.9349 243.42 91.0835 243.57 91.0835 243.753V270.864C91.0835 270.953 91.0479 271.037 90.9855 271.1C90.9231 271.162 90.8384 271.197 90.7507 271.197L90.7492 271.198ZM40.2476 270.409L90.4165 270.531V244.086L40.2907 243.989L40.2491 270.407L40.2476 270.409Z" fill="black"/>
<path d="M186.237 180.179L165.791 193.388L109.161 193.263C109.102 193.263 109.072 193.217 109.115 193.19L129.488 180.029L186.159 180.056C186.259 180.056 186.309 180.134 186.238 180.179H186.237Z" fill="white"/>
<path d="M165.791 193.723L109.161 193.598C108.98 193.598 108.826 193.486 108.777 193.323C108.73 193.167 108.794 193.002 108.934 192.911L129.307 179.75C129.36 179.715 129.424 179.696 129.488 179.696L186.159 179.723C186.364 179.723 186.537 179.843 186.589 180.022C186.638 180.187 186.57 180.364 186.419 180.46L165.974 193.669C165.92 193.703 165.857 193.723 165.793 193.723H165.791ZM110.128 192.933L165.693 193.057L185.299 180.39L129.586 180.364L110.128 192.933Z" fill="black"/>
<path d="M186.328 180.068V257.63L165.946 270.804C165.888 270.842 165.79 270.815 165.79 270.763V193.389C165.79 193.389 186.033 180.077 186.328 180.068Z" fill="#F6A3B6"/>
<path d="M165.791 270.89L109.088 270.766C109.21 270.845 109.131 193.291 109.131 193.291L165.791 193.388C165.791 193.388 165.791 270.934 165.791 270.89Z" fill="white"/>
<path d="M165.791 271.225L109.088 271.101C108.933 271.101 108.798 270.994 108.764 270.843C108.754 270.798 108.754 270.752 108.761 270.709C108.874 269.03 108.8 194.054 108.798 193.295C108.798 193.206 108.834 193.121 108.896 193.058C108.959 192.996 109.043 192.96 109.133 192.96L165.792 193.057C165.976 193.057 166.125 193.207 166.125 193.39V270.892C166.125 270.981 166.089 271.066 166.027 271.128C165.964 271.191 165.88 271.225 165.792 271.225H165.791ZM109.424 270.436L165.456 270.557V193.723L109.464 193.628C109.467 196.267 109.483 214.133 109.488 232.006C109.489 241.687 109.488 251.369 109.479 258.636C109.474 262.27 109.467 265.299 109.458 267.421C109.45 269.077 109.446 269.957 109.425 270.436H109.424Z" fill="black"/>
<path d="M148.178 263.802C148.068 263.802 147.961 263.749 147.897 263.649C147.797 263.494 147.842 263.288 147.996 263.188L153.157 259.853C153.312 259.753 153.519 259.798 153.618 259.953C153.718 260.107 153.673 260.314 153.519 260.413L148.357 263.749C148.301 263.784 148.239 263.802 148.178 263.802Z" fill="black"/>
<path d="M260.052 124.773L239.415 140.717L183.535 140.568C183.452 140.568 183.412 140.491 183.47 140.446L203.796 124.742L260.05 124.774L260.052 124.773Z" fill="white"/>
<path d="M239.414 141.05L183.535 140.901C183.349 140.901 183.187 140.788 183.13 140.622C183.075 140.461 183.13 140.289 183.267 140.182L203.594 124.477C203.652 124.433 203.725 124.407 203.797 124.407L260.051 124.44C260.194 124.44 260.32 124.531 260.366 124.666C260.412 124.801 260.366 124.95 260.255 125.038L239.618 140.982C239.56 141.026 239.487 141.051 239.414 141.051V141.05ZM184.285 140.235L239.301 140.383L259.077 125.105L203.912 125.073L184.286 140.235H184.285Z" fill="black"/>
<path d="M260.05 124.786V255.122L239.725 270.834C239.646 270.895 239.513 270.852 239.513 270.765V140.715C239.513 140.715 259.756 124.797 260.05 124.785V124.786Z" fill="#F6A3B6"/>
<path d="M239.51 270.864L183.395 270.717C183.516 270.81 183.438 140.601 183.438 140.601L239.51 140.717C239.51 140.717 239.51 270.919 239.51 270.864Z" fill="white"/>
<path d="M239.513 271.197L183.397 271.05C183.239 271.05 183.104 270.94 183.072 270.785C183.063 270.745 183.063 270.705 183.069 270.665C183.183 268.633 183.109 141.884 183.107 140.601C183.107 140.512 183.143 140.427 183.205 140.365C183.268 140.303 183.352 140.267 183.44 140.267L239.513 140.383C239.697 140.383 239.846 140.533 239.846 140.716V270.862C239.846 270.951 239.81 271.036 239.748 271.099C239.685 271.161 239.6 271.195 239.513 271.195V271.197ZM183.737 270.384L239.18 270.529V141.049L183.774 140.934C183.776 144.446 183.794 175.037 183.798 205.634C183.8 221.895 183.798 238.158 183.789 250.36C183.785 256.461 183.777 261.546 183.768 265.107C183.764 266.889 183.758 268.289 183.752 269.245C183.749 269.771 183.746 270.131 183.739 270.382L183.737 270.384Z" fill="black"/>
<path d="M207.273 255.168C207.173 255.168 207.075 255.123 207.008 255.038C206.895 254.893 206.922 254.683 207.068 254.57L223.316 242.017C223.462 241.904 223.671 241.931 223.784 242.076C223.897 242.222 223.87 242.431 223.725 242.544L207.476 255.098C207.415 255.146 207.344 255.168 207.273 255.168Z" fill="black"/>
<path d="M206.699 245.716C206.599 245.716 206.501 245.671 206.434 245.586C206.321 245.441 206.348 245.231 206.494 245.118L211.655 241.13C211.8 241.017 212.01 241.044 212.123 241.19C212.236 241.336 212.209 241.545 212.063 241.658L206.902 245.646C206.841 245.693 206.77 245.716 206.699 245.716Z" fill="black"/>
<path d="M17.4261 251.488L16.043 263.756L21.2591 265.929L23.18 252.554L17.4261 251.488Z" fill="white"/>
<path d="M21.2589 266.262C21.2158 266.262 21.1727 266.253 21.1311 266.237L15.9165 264.064C15.7798 264.008 15.6966 263.866 15.713 263.719L17.0961 251.451C17.1065 251.359 17.1541 251.276 17.2283 251.221C17.3026 251.166 17.3962 251.143 17.4868 251.161L23.2408 252.227C23.4161 252.26 23.5349 252.424 23.5097 252.601L21.5887 265.975C21.5739 266.078 21.5129 266.167 21.4238 266.218C21.3733 266.246 21.3154 266.261 21.2589 266.261V266.262ZM16.4023 263.545L20.99 265.457L22.804 252.824L17.7171 251.882L16.4023 263.545Z" fill="black"/>
<path d="M14.8287 262.599C14.6638 263.763 14.3994 265.919 14.3771 267.853C14.3637 269.067 15.2744 270.093 16.4793 270.248C19.8844 270.685 27.6083 271.163 34.1867 270.566C34.6369 270.524 35.4332 270.197 35.656 269.072C36.4004 265.294 29.8308 264.368 22.6299 261.628C22.3476 261.521 22.0282 261.585 21.8113 261.795L21.0343 262.547C20.2573 263.3 19.1044 263.513 18.109 263.089L15.7469 262.082C15.3443 261.911 14.8896 262.168 14.8287 262.6V262.599Z" fill="white"/>
<path d="M27.3327 271.181C22.9055 271.181 18.7769 270.877 16.4385 270.577C15.0583 270.4 14.0302 269.228 14.0451 267.848C14.0674 265.882 14.3392 263.685 14.4997 262.551C14.5443 262.24 14.7255 261.974 14.9974 261.821C15.2693 261.668 15.5902 261.65 15.8784 261.772L18.2406 262.78C19.1141 263.153 20.1199 262.967 20.8033 262.306L21.5803 261.554C21.8878 261.255 22.3469 261.163 22.7495 261.316C24.4298 261.955 26.0447 262.486 27.6061 262.998C32.638 264.65 36.6121 265.955 35.9851 269.137C35.7474 270.341 34.8858 270.839 34.2202 270.898C31.9828 271.102 29.6191 271.182 27.3357 271.182L27.3327 271.181ZM15.4876 262.359C15.4312 262.359 15.3762 262.374 15.3257 262.402C15.2351 262.453 15.1742 262.542 15.1608 262.645C15.0033 263.764 14.7344 265.928 14.7121 267.857C14.7003 268.898 15.4787 269.782 16.5231 269.917C20.0397 270.369 27.6373 270.825 34.1578 270.234C34.3153 270.219 35.116 270.093 35.33 269.008C35.8425 266.404 32.3007 265.241 27.3981 263.632C25.8292 263.116 24.2069 262.584 22.5118 261.939C22.3499 261.878 22.1671 261.915 22.0438 262.034L21.2668 262.786C20.3918 263.635 19.1007 263.874 17.9791 263.395L15.6169 262.387C15.5753 262.37 15.5307 262.361 15.4862 262.361L15.4876 262.359Z" fill="black"/>
<path d="M14.3835 267.562C14.3835 267.562 14.3791 267.758 14.3791 267.853C14.3657 269.067 15.2764 270.093 16.4812 270.247C19.8863 270.684 27.6102 271.163 34.1887 270.565C34.6388 270.524 35.4351 270.197 35.658 269.072C35.7263 268.727 35.6847 268.106 35.6847 268.106L35.2182 268.129C28.57 268.458 21.9068 268.297 15.2823 267.652L14.385 267.564L14.3835 267.562Z" fill="white"/>
<path d="M27.3327 271.181C22.9055 271.181 18.7769 270.878 16.4385 270.577C15.0583 270.4 14.0302 269.228 14.0451 267.848L14.0495 267.554C14.051 267.462 14.0926 267.373 14.161 267.312C14.2308 267.249 14.3214 267.218 14.415 267.229L15.3123 267.316C21.8982 267.958 28.5881 268.119 35.1992 267.792L35.6657 267.77C35.8455 267.761 36.003 267.899 36.0148 268.08C36.0193 268.149 36.0579 268.757 35.9836 269.134C35.7459 270.338 34.8843 270.834 34.2187 270.895C31.9813 271.099 29.6176 271.179 27.3342 271.179L27.3327 271.181ZM14.7121 267.929C14.7359 268.936 15.5025 269.785 16.5231 269.916C20.0397 270.368 27.6373 270.824 34.1578 270.232C34.3153 270.218 35.116 270.091 35.33 269.006C35.3582 268.864 35.3641 268.644 35.3626 268.453L35.2334 268.459C28.5911 268.788 21.867 268.626 15.2499 267.981L14.7136 267.929H14.7121Z" fill="black"/>
<path d="M24.2806 266.04C24.1959 266.04 24.1097 266.007 24.0443 265.942C23.9136 265.811 23.9136 265.6 24.0443 265.471L26.5714 262.941C26.7007 262.81 26.9131 262.81 27.0424 262.941C27.1731 263.072 27.1731 263.283 27.0424 263.412L24.5153 265.942C24.4499 266.007 24.3652 266.04 24.2791 266.04H24.2806Z" fill="black"/>
<path d="M26.7644 266.303C26.6812 266.303 26.5981 266.271 26.5327 266.209C26.4005 266.081 26.396 265.87 26.5238 265.738L28.5428 263.639C28.6705 263.507 28.8815 263.502 29.0137 263.63C29.1459 263.758 29.1504 263.969 29.0226 264.101L27.0036 266.2C26.9383 266.269 26.8506 266.303 26.763 266.303H26.7644Z" fill="black"/>
<path d="M36.3666 170.637C36.3666 170.637 33.1918 172.48 31.9527 183.288C30.7137 194.097 31.1267 206.839 22.4981 219.476C15.6062 229.568 16.2123 246.6 15.211 257.764C15.1619 258.304 15.5764 258.77 16.1172 258.79L22.7239 259.016C23.1443 259.031 23.5232 258.766 23.6524 258.365C24.8335 254.707 30.7048 237.058 37.3011 226.825C44.2717 216.01 52.7488 187.938 52.7488 187.938C52.7488 187.938 51.1755 180.842 50.9572 174.042C50.7388 167.24 36.3666 170.637 36.3666 170.637Z" fill="#97DDA8"/>
<path d="M72.6293 220.791L69.8438 232.818L74.7746 235.577L78.2228 222.513L72.6293 220.791Z" fill="white"/>
<path d="M74.7749 235.911C74.7184 235.911 74.6619 235.896 74.6114 235.868L69.6806 233.11C69.5513 233.037 69.4845 232.888 69.5186 232.744L72.3042 220.716C72.325 220.626 72.383 220.549 72.4632 220.502C72.5434 220.456 72.6385 220.446 72.7276 220.473L78.3211 222.195C78.492 222.247 78.5915 222.426 78.5454 222.6L75.0972 235.665C75.0705 235.764 75.0007 235.846 74.9056 235.886C74.864 235.904 74.8194 235.913 74.7749 235.913V235.911ZM70.2258 232.65L74.5624 235.077L77.819 222.738L72.8732 221.216L70.2243 232.65H70.2258Z" fill="black"/>
<path d="M69.2513 232.108C69.0864 233.272 68.042 235.476 68.0197 237.41C68.0063 238.624 68.917 239.65 70.1219 239.805C73.527 240.242 82.0293 240.673 88.6093 240.075C89.0594 240.033 89.8557 239.706 90.0786 238.581C90.8229 234.803 84.2534 233.877 77.0524 231.138C76.7701 231.031 76.4507 231.095 76.2338 231.304L75.4568 232.056C74.6798 232.81 73.527 233.022 72.5316 232.599L70.1694 231.591C69.7668 231.42 69.3122 231.677 69.2513 232.11V232.108Z" fill="white"/>
<path d="M81.2333 240.697C76.7853 240.697 72.4621 240.44 70.0791 240.134C68.6989 239.957 67.6708 238.784 67.6857 237.405C67.7006 236.137 68.1344 234.764 68.485 233.659C68.6885 233.017 68.8638 232.463 68.9203 232.06C68.9634 231.749 69.1461 231.483 69.418 231.33C69.6898 231.177 70.0107 231.159 70.299 231.281L72.6611 232.289C73.5362 232.662 74.5405 232.475 75.2239 231.815L76.0009 231.063C76.3084 230.764 76.766 230.672 77.1686 230.825C78.8489 231.464 80.4638 231.995 82.0252 232.507C87.0571 234.159 91.0312 235.464 90.4042 238.646C90.1665 239.85 89.3049 240.348 88.6393 240.407C86.3558 240.614 83.7738 240.699 81.2333 240.699V240.697ZM69.9082 231.868C69.8518 231.868 69.7968 231.883 69.7463 231.911C69.6557 231.962 69.5948 232.051 69.5814 232.154C69.516 232.611 69.3333 233.191 69.1208 233.861C68.7851 234.923 68.3661 236.244 68.3528 237.414C68.3409 238.454 69.1194 239.339 70.1638 239.474C73.2524 239.871 81.8246 240.357 88.5784 239.743C88.7359 239.728 89.5366 239.602 89.7506 238.517C90.2646 235.913 86.7213 234.75 81.8187 233.141C80.2498 232.626 78.6275 232.093 76.9324 231.448C76.7704 231.387 76.5877 231.424 76.4644 231.541L75.6874 232.293C74.8109 233.142 73.5213 233.381 72.3997 232.903L70.0375 231.895C69.9959 231.877 69.9513 231.868 69.9067 231.868H69.9082Z" fill="black"/>
<path d="M68.2048 237.039C68.2048 237.039 68.2003 237.235 68.2003 237.33C68.187 238.544 69.0977 239.57 70.3025 239.724C73.7076 240.161 82.0302 240.673 88.6087 240.077C89.0588 240.035 89.8551 239.708 90.078 238.583C90.1463 238.238 90.1047 237.617 90.1047 237.617L89.6382 237.639C82.99 237.967 76.3268 237.807 69.7023 237.162L68.2063 237.041L68.2048 237.039Z" fill="white"/>
<path d="M81.8656 240.681C76.9377 240.681 72.3203 240.318 70.2597 240.054C68.8796 239.877 67.8515 238.704 67.8664 237.325L67.8708 237.03C67.8723 236.938 67.9124 236.852 67.9808 236.79C68.0491 236.727 68.1382 236.696 68.2318 236.705L69.7279 236.825C76.3212 237.467 83.0111 237.628 89.6207 237.302L90.0872 237.28C90.2744 237.276 90.4245 237.409 90.4363 237.591C90.4408 237.659 90.4794 238.267 90.4051 238.645C90.1674 239.848 89.3058 240.346 88.6402 240.406C86.4622 240.604 84.1312 240.681 81.8671 240.681H81.8656ZM68.5334 237.399C68.5542 238.41 69.3223 239.261 70.3444 239.392C73.3306 239.776 81.7156 240.366 88.5793 239.743C88.7368 239.728 89.5375 239.602 89.7514 238.517C89.7797 238.373 89.7856 238.154 89.7841 237.964L89.6549 237.97C83.014 238.297 76.29 238.136 69.6699 237.491L68.5349 237.399H68.5334Z" fill="black"/>
<path d="M78.7034 235.549C78.6187 235.549 78.5326 235.516 78.4672 235.451C78.3365 235.32 78.3365 235.109 78.4672 234.98L80.9943 232.45C81.1235 232.319 81.336 232.319 81.4652 232.45C81.596 232.581 81.596 232.792 81.4652 232.921L78.9381 235.451C78.8728 235.516 78.7881 235.549 78.7019 235.549H78.7034Z" fill="black"/>
<path d="M81.1844 235.812C81.1012 235.812 81.018 235.78 80.9526 235.718C80.8204 235.59 80.8159 235.379 80.9437 235.247L82.9627 233.148C83.0905 233.016 83.3014 233.011 83.4336 233.139C83.5659 233.267 83.5703 233.478 83.4426 233.61L81.4236 235.709C81.3582 235.777 81.2705 235.812 81.1829 235.812H81.1844Z" fill="black"/>
<path d="M47.4561 188.723C47.4561 188.723 63.0316 193.359 79.5981 184.458C80.0868 184.195 80.6068 184.757 80.3112 185.227C79.4777 186.547 77.0933 189.788 75.8498 193.165C74.3181 197.324 71.0853 218.839 70.0201 225.533C69.9235 226.138 70.3796 226.69 70.9917 226.709L77.3607 226.916C77.7633 226.929 78.1347 226.705 78.31 226.34C80.6083 221.55 96.9668 183.968 96.3948 176.947C95.7753 169.354 85.7605 169.742 82.1474 169.51C78.4095 169.271 48.6015 169.965 48.6015 169.965L47.4575 188.721L47.4561 188.723Z" fill="#97DDA8"/>
<path d="M3.94352 178.757C4.45607 178.144 5.12164 177.426 5.69213 176.861C6.43049 176.132 8.8937 171.335 8.8937 171.335L13.2021 172.557C13.2021 172.557 11.1875 176.081 11.6719 177.836C12.122 179.471 12.4771 182.923 10.0852 185.436C9.81034 185.724 9.21014 185.8 9.00067 185.751C8.37669 185.606 8.36332 184.738 8.66937 184.174L9.53253 182.582C9.6083 182.443 9.4939 182.276 9.33642 182.298C8.69016 182.389 7.2684 182.804 5.78127 184.639C4.63732 186.051 2.36873 189.204 1.60511 188.682C0.242769 187.75 1.13267 182.105 3.94203 178.757H3.94352Z" fill="white"/>
<path d="M1.79674 189.076C1.66155 189.076 1.53527 189.039 1.41938 188.959C1.04054 188.699 0.796898 188.198 0.69736 187.471C0.394288 185.255 1.45207 181.212 3.68946 178.544C4.20349 177.93 4.86609 177.214 5.46035 176.627C6.03381 176.059 7.92058 172.507 8.59952 171.185C8.67232 171.044 8.83426 170.974 8.98728 171.017L13.2942 172.239C13.3922 172.267 13.4725 172.339 13.5126 172.434C13.5512 172.529 13.5438 172.636 13.4932 172.725C12.9525 173.672 11.6288 176.422 11.9957 177.75C12.2156 178.549 13.1709 182.685 10.3303 185.668C9.95295 186.065 9.21755 186.147 8.92934 186.078C8.62775 186.007 8.39005 185.809 8.25931 185.519C8.07212 185.1 8.11966 184.497 8.38113 184.017L9.10316 182.685C8.4569 182.841 7.2773 183.33 6.04421 184.851C5.87336 185.06 5.67874 185.31 5.46778 185.579C3.88259 187.599 2.64802 189.076 1.79971 189.076H1.79674ZM9.06602 171.732C8.51781 172.789 6.60875 176.428 5.92833 177.101C5.35635 177.666 4.69524 178.384 4.20052 178.972C2.14587 181.422 1.07174 185.296 1.35847 187.38C1.42978 187.899 1.58578 188.265 1.79674 188.409C2.28255 188.549 4.21686 186.092 4.94186 185.167C5.15579 184.895 5.35338 184.644 5.52423 184.431C7.06188 182.535 8.54455 182.076 9.29184 181.97C9.48943 181.942 9.68405 182.027 9.79696 182.19C9.91135 182.355 9.92324 182.566 9.82667 182.743L8.96351 184.335C8.80454 184.628 8.76294 185.019 8.86397 185.246C8.90854 185.347 8.97688 185.405 9.0779 185.429C9.20715 185.459 9.67216 185.389 9.8445 185.207C12.437 182.483 11.5545 178.664 11.3509 177.926C10.9275 176.392 12.1978 173.743 12.7103 172.765L9.06602 171.732Z" fill="black"/>
<path d="M107.204 124.582L104.42 119.887C103.963 119.114 102.522 118.881 101.803 119.417C86.0711 131.149 69.3367 126.365 66.7502 125.748C60.3367 124.22 57.1039 123.986 52.0408 123.679C44.6304 123.227 33.9709 127.515 26.7982 134.691C21.0918 140.4 11.3593 158.917 6.94544 171.781C6.75973 172.322 6.99892 172.915 7.50553 173.18L11.9342 175.479C12.4958 175.77 13.1852 175.558 13.4823 174.999C15.736 170.751 25.4997 153.135 35.7165 147.319C36.4668 146.892 37.5973 147.344 37.5542 148.206C37.4176 150.914 35.7388 160.952 35.2262 170.252C35.1594 171.479 36.0047 172.567 37.2125 172.792L41.6829 173.621C49.4795 175.437 56.7889 173.415 60.0098 172.264C60.9963 171.912 61.4732 170.961 61.6232 169.925C61.8713 168.205 65.3329 154.418 71.6424 145.298C72.4373 144.15 73.6406 143.355 75.0342 143.273C80.6603 142.945 96.6771 140.693 107.135 126.033C107.439 125.605 107.47 125.04 107.203 124.588L107.204 124.582Z" fill="white"/>
<path d="M12.463 175.94C12.2327 175.94 11.9995 175.886 11.7826 175.773L7.35388 173.474C6.69425 173.132 6.39118 172.374 6.63186 171.673C11.1854 158.398 21.0575 139.963 26.5633 134.455C33.476 127.539 44.2009 122.866 52.0615 123.346C57.2479 123.662 60.4911 123.914 66.8273 125.424C66.9284 125.448 67.0517 125.479 67.1958 125.514C79.8966 128.665 91.7951 126.466 101.603 119.15C102.034 118.829 102.68 118.716 103.336 118.847C103.952 118.97 104.451 119.288 104.707 119.718L107.491 124.413C107.824 124.975 107.791 125.684 107.408 126.222C97.0023 140.809 81.3169 143.235 75.0549 143.602C73.8396 143.673 72.6956 144.358 71.9187 145.483C65.9107 154.167 62.2798 167.719 61.9559 169.968C61.7643 171.295 61.1135 172.221 60.1256 172.575C56.5303 173.859 49.3428 175.744 41.6114 173.942L37.156 173.116C35.7922 172.863 34.8205 171.622 34.8978 170.229C35.2276 164.244 36.0284 158.04 36.6137 153.511C36.9287 151.07 37.1783 149.143 37.2258 148.187C37.2407 147.888 37.0327 147.713 36.9064 147.636C36.6018 147.448 36.1829 147.436 35.8843 147.606C25.9275 153.273 16.4475 170.124 13.7793 175.154C13.5134 175.653 12.9964 175.94 12.4645 175.94H12.463ZM50.922 123.979C43.3556 123.979 33.5057 128.451 27.0357 134.926C21.5849 140.379 11.7915 158.688 7.26326 171.888C7.13103 172.275 7.29743 172.694 7.66141 172.882L12.0901 175.182C12.4868 175.388 12.9815 175.235 13.191 174.841C15.88 169.772 25.4416 152.784 35.5545 147.028C36.0625 146.739 36.7459 146.756 37.2555 147.069C37.6819 147.332 37.9137 147.751 37.8899 148.221C37.8409 149.202 37.5898 151.142 37.2733 153.597C36.6895 158.117 35.8902 164.306 35.5619 170.268C35.5039 171.326 36.2408 172.269 37.2763 172.462L41.7466 173.291C49.3279 175.057 56.3743 173.208 59.9012 171.948C60.8565 171.607 61.1863 170.632 61.2963 169.874C61.5176 168.342 64.8915 154.47 71.3719 145.104C72.2678 143.81 73.596 143.02 75.0177 142.937C81.1832 142.576 96.628 140.189 106.867 125.835C107.097 125.513 107.118 125.089 106.919 124.755L104.135 120.06C103.979 119.795 103.631 119.587 103.206 119.502C102.743 119.41 102.281 119.48 102.003 119.687C92.1725 127.019 79.754 129.318 67.0368 126.162C66.8957 126.127 66.7739 126.097 66.6743 126.073C60.3915 124.577 57.1721 124.325 52.0214 124.012C51.6604 123.989 51.2934 123.979 50.922 123.979Z" fill="black"/>
<path d="M103.372 121.299C103.313 120.95 103.437 120.596 103.706 120.366C104.063 120.062 104.664 119.545 105.537 118.781C107.076 117.435 109.001 114.746 110.678 113.94C112.356 113.133 118.442 110.755 119.415 111.26C120.389 111.766 119.906 112.909 118.524 113.573C117.142 114.237 115.343 114.92 115.343 114.92C115.343 114.92 116.349 114.862 117.092 116.024C117.835 117.186 116.805 117.656 117.239 118.231C117.795 118.968 117.631 119.825 117.19 120.201C116.186 121.057 114.967 119.365 114.06 121.115C113.428 122.331 111.938 123.123 108.913 123.701C108.102 123.856 107.328 124.168 106.629 124.606C106.339 124.787 105.972 124.801 105.673 124.633C104.951 124.226 103.699 123.254 103.369 121.301L103.372 121.299Z" fill="white"/>
<path d="M106.129 125.084C105.917 125.084 105.704 125.03 105.514 124.923C104.743 124.488 103.397 123.446 103.045 121.356C102.966 120.891 103.139 120.415 103.492 120.113C103.849 119.81 104.448 119.294 105.32 118.532C105.865 118.055 106.461 117.404 107.092 116.714C108.232 115.468 109.411 114.181 110.537 113.64C111.255 113.295 118.289 110.297 119.573 110.965C120.025 111.2 120.27 111.573 120.264 112.017C120.253 112.696 119.644 113.407 118.673 113.874C117.915 114.238 117.028 114.609 116.379 114.872C116.707 115.055 117.065 115.355 117.377 115.844C117.891 116.649 117.686 117.224 117.55 117.603C117.45 117.882 117.444 117.942 117.509 118.029C118.174 118.909 117.974 119.972 117.41 120.454C116.859 120.923 116.254 120.797 115.768 120.696C115.143 120.565 114.765 120.486 114.36 121.268C113.66 122.616 112.051 123.441 108.98 124.028C108.22 124.174 107.49 124.462 106.81 124.889C106.602 125.02 106.366 125.085 106.129 125.085V125.084ZM103.702 121.244C104.008 123.062 105.174 123.964 105.841 124.342C106.03 124.449 106.266 124.441 106.456 124.323C107.206 123.853 108.013 123.533 108.854 123.373C111.702 122.829 113.171 122.106 113.767 120.96C114.406 119.731 115.272 119.911 115.903 120.043C116.382 120.143 116.689 120.192 116.978 119.945C117.258 119.706 117.451 119.059 116.978 118.431C116.683 118.041 116.816 117.674 116.921 117.378C117.04 117.045 117.153 116.732 116.814 116.203C116.195 115.234 115.398 115.25 115.363 115.251C115.202 115.257 115.055 115.144 115.022 114.984C114.99 114.823 115.076 114.664 115.229 114.606C115.247 114.599 117.031 113.921 118.383 113.272C119.213 112.872 119.591 112.349 119.595 112.005C119.595 111.937 119.6 111.729 119.264 111.555C118.557 111.188 113.032 113.179 110.824 114.241C109.814 114.727 108.679 115.966 107.581 117.164C106.938 117.867 106.328 118.532 105.756 119.033C104.881 119.798 104.28 120.315 103.922 120.62C103.743 120.772 103.66 121.005 103.7 121.244H103.702Z" fill="black"/>
<path d="M62.7077 110.953L54.3851 124.754C54.2721 124.911 53.0495 124.868 51.6723 125.008C51.029 125.073 50.356 125.172 49.7989 125.262C49.3398 125.337 49.2105 125.934 49.5983 126.191L51.0884 127.178C54.2112 129.247 57.9194 130.317 61.6573 130.065C62.6958 129.995 63.6912 129.827 64.5766 129.55L67.7633 128.547C68.2417 128.397 68.2372 127.718 67.7589 127.572L63.7001 126.341L67.1275 119.064L62.7077 110.953Z" fill="white"/>
<path d="M60.5888 130.433C57.2297 130.433 53.8291 129.394 50.9038 127.456L49.4137 126.469C49.1225 126.276 48.9814 125.931 49.0557 125.589C49.1285 125.247 49.4004 124.99 49.745 124.933C50.4477 124.819 51.0836 124.733 51.6378 124.676C52.2068 124.618 52.7535 124.592 53.1932 124.569C53.5676 124.55 53.988 124.529 54.153 124.496L62.4221 110.781C62.483 110.678 62.5914 110.619 62.7147 110.62C62.8336 110.623 62.9435 110.688 63 110.794L67.4198 118.905C67.4703 118.998 67.4733 119.11 67.4287 119.207L64.1662 126.134L67.8566 127.254C68.2176 127.364 68.4523 127.679 68.4553 128.056C68.4568 128.434 68.225 128.752 67.8655 128.865L64.6788 129.868C63.7948 130.143 62.7861 130.321 61.6822 130.396C61.3197 130.421 60.9557 130.433 60.5903 130.433H60.5888ZM62.6939 111.623L54.6714 124.926C54.4947 125.173 54.1752 125.188 53.2274 125.235C52.7951 125.257 52.2573 125.284 51.7061 125.339C51.1653 125.394 50.5413 125.479 49.8535 125.59C49.745 125.608 49.7153 125.693 49.7079 125.729C49.7005 125.764 49.693 125.852 49.7837 125.913L51.2738 126.9C54.3936 128.967 58.0736 129.972 61.6362 129.731C62.6895 129.66 63.6448 129.492 64.4797 129.232L67.6664 128.229C67.7793 128.193 67.7897 128.098 67.7897 128.059C67.7897 128.021 67.7764 127.925 67.6649 127.891L63.6061 126.661C63.514 126.632 63.4383 126.565 63.3981 126.476C63.3595 126.387 63.3595 126.286 63.4011 126.198L66.7557 119.074L62.6954 111.622L62.6939 111.623Z" fill="black"/>
<path d="M66.4217 119.348C66.8585 119.404 67.3072 119.422 67.7692 119.399L68.5908 119.355C68.5908 119.355 73.3033 118.73 74.0595 117.561C74.8157 116.392 73.2171 112.148 73.2171 112.148C73.9466 111.582 74.1085 110.865 73.9525 110.625C73.7965 110.384 72.7462 110.017 72.3198 109.703C71.9721 109.448 71.1936 107.416 70.8609 106.543C70.8609 106.543 70.2443 103.098 64.7207 103.545C52.0659 104.571 61.164 116.288 61.164 116.288C61.3601 116.515 61.5622 116.734 61.7702 116.942L66.4203 119.349L66.4217 119.348Z" fill="white"/>
<path d="M67.3734 119.742C66.6707 119.742 65.9814 119.648 65.3158 119.462C65.139 119.413 65.035 119.229 65.0841 119.052C65.1331 118.875 65.3173 118.771 65.4941 118.82C66.2206 119.024 66.9797 119.104 67.7523 119.066L68.5738 119.023C70.3106 118.791 73.2908 118.137 73.7796 117.38C74.2639 116.631 73.5002 113.846 72.906 112.266C72.854 112.129 72.8986 111.974 73.013 111.885C73.582 111.442 73.7142 110.919 73.6681 110.796C73.6087 110.738 73.2373 110.561 72.9907 110.443C72.6698 110.29 72.34 110.131 72.1231 109.972C71.8125 109.743 71.3862 108.847 70.5497 106.664C70.5423 106.644 70.5364 106.624 70.5334 106.603C70.5096 106.476 69.8782 103.464 64.7483 103.878C61.6269 104.131 59.6362 105.029 58.831 106.546C57.4701 109.113 59.6362 112.951 60.9302 115.243L61.0446 115.446C61.1352 115.607 61.0787 115.811 60.9183 115.901C60.7578 115.992 60.5543 115.935 60.4637 115.775L60.3493 115.571C58.9869 113.16 56.708 109.125 58.2412 106.234C59.1593 104.503 61.3298 103.486 64.6933 103.214C70.1308 102.772 71.0846 106.048 71.1797 106.447C72.0458 108.709 72.3875 109.321 72.5212 109.437C72.6846 109.556 72.9996 109.708 73.2789 109.841C73.8018 110.091 74.1034 110.243 74.2327 110.443C74.4882 110.839 74.2891 111.625 73.6102 112.252C73.9578 113.22 75.0839 116.591 74.3382 117.743C73.5225 119.005 69.1324 119.622 68.6348 119.687L67.7864 119.733C67.6483 119.74 67.5101 119.743 67.372 119.743L67.3734 119.742Z" fill="black"/>
<path d="M62.139 102.047C63.5191 101.775 65.0909 101.989 65.7639 101.76C66.8485 101.39 66.8232 100.143 68.3519 100.019C69.6964 99.911 70.9459 100.162 71.6248 101.192C71.7377 101.365 71.8358 101.556 71.916 101.773C72.9753 104.685 71.5119 106.088 70.8642 106.545C70.8642 106.545 66.7653 108.514 66.0581 109.08C65.397 109.609 64.617 110.87 65.0419 112.693C65.0969 112.928 64.984 113.172 64.773 113.289C64.5264 113.428 64.2129 113.359 64.051 113.126C63.5429 112.392 62.4272 110.971 61.6011 111.298C60.637 111.68 60.3101 114.104 62.081 114.703C62.6262 114.887 62.806 115.602 62.4138 116.023C62.0884 116.372 61.5893 116.617 60.8375 116.426C60.8375 116.426 56.4281 113.281 55.9067 109.137C55.3852 104.993 60.3027 102.41 62.139 102.047Z" fill="black"/>
<path d="M226.851 98.4293H215.271V129.32H226.851V98.4293Z" fill="white"/>
<path d="M226.851 129.654H215.27C215.086 129.654 214.938 129.506 214.938 129.321V98.431C214.938 98.2467 215.086 98.098 215.27 98.098H226.851C227.035 98.098 227.184 98.2467 227.184 98.431V129.321C227.184 129.506 227.035 129.654 226.851 129.654ZM215.605 128.987H226.518V98.7624H215.605V128.987Z" fill="#19342F"/>
<path d="M229.297 121.13H212.709C211.476 121.13 210.477 122.131 210.477 123.364V127.556C210.477 128.79 211.476 129.79 212.709 129.79H229.297C230.53 129.79 231.53 128.79 231.53 127.556V123.364C231.53 122.131 230.53 121.13 229.297 121.13Z" fill="white"/>
<path d="M229.296 130.122H212.708C211.294 130.122 210.143 128.97 210.143 127.555V123.364C210.143 121.949 211.294 120.797 212.708 120.797H229.296C230.71 120.797 231.861 121.949 231.861 123.364V127.555C231.861 128.97 230.71 130.122 229.296 130.122ZM212.708 121.463C211.661 121.463 210.81 122.315 210.81 123.363V127.554C210.81 128.602 211.661 129.454 212.708 129.454H229.296C230.343 129.454 231.194 128.602 231.194 127.554V123.363C231.194 122.315 230.343 121.463 229.296 121.463H212.708Z" fill="#19342F"/>
<path d="M202.675 128.386H239.326C241.348 128.386 242.988 130.028 242.988 132.05V135.172H199.012V132.05C199.012 130.027 200.653 128.386 202.674 128.386H202.675Z" fill="white"/>
<path d="M242.988 135.505H199.011C198.827 135.505 198.679 135.356 198.679 135.172V132.049C198.679 129.845 200.47 128.052 202.674 128.052H239.325C241.528 128.052 243.319 129.845 243.319 132.049V135.172C243.319 135.356 243.171 135.505 242.987 135.505H242.988ZM199.344 134.837H242.654V132.048C242.654 130.21 241.161 128.717 239.325 128.717H202.674C200.837 128.717 199.344 130.21 199.344 132.048V134.837Z" fill="#19342F"/>
<path d="M212.12 96.9208C199.972 90.0955 187.825 79.7952 178.797 68.6611C173.252 61.8239 164.41 49.031 167.476 40.1665C168.362 37.6071 170.614 34.3921 176.316 33.6088C180.455 33.0411 186.051 33.8258 192.951 35.9409L191.446 42.0334C185.264 40.1383 180.406 39.4145 177.01 39.8812C174.671 40.2022 173.245 41.0628 172.768 42.4391C171.637 45.7061 174.365 53.771 183.006 64.4265C191.584 75.0047 203.127 84.7923 214.674 91.2801L212.12 96.9222V96.9208Z" fill="white"/>
<path d="M212.12 97.2554C212.063 97.2554 212.007 97.2405 211.956 97.2123C199.772 90.3677 187.592 80.0377 178.538 68.8723C172.951 61.9817 164.041 49.0758 167.161 40.0583C168.076 37.4111 170.401 34.0862 176.269 33.2791C180.458 32.7039 186.102 33.4931 193.047 35.623C193.216 35.675 193.316 35.8504 193.273 36.0214L191.768 42.1139C191.745 42.203 191.688 42.2788 191.609 42.3234C191.529 42.368 191.434 42.3784 191.347 42.3517C185.212 40.4715 180.401 39.7506 177.054 40.2113C174.851 40.5131 173.515 41.2993 173.083 42.5479C171.983 45.7271 174.704 53.6612 183.264 64.2157C191.817 74.7627 203.325 84.5205 214.837 90.989C214.987 91.0737 215.048 91.2595 214.978 91.4171L212.424 97.0592C212.386 97.1439 212.313 97.2093 212.225 97.239C212.191 97.2494 212.157 97.2554 212.121 97.2554H212.12ZM179.122 33.7651C178.138 33.7651 177.217 33.8246 176.36 33.942C170.826 34.7015 168.645 37.8065 167.789 40.2782C164.775 48.9911 173.554 61.671 179.054 68.4532C187.979 79.4595 199.958 89.6468 211.965 96.4528L214.243 91.42C202.75 84.9114 191.282 75.164 182.744 64.6363C174.023 53.8827 171.291 45.6855 172.451 42.3309C172.973 40.8252 174.49 39.8903 176.962 39.5514C180.345 39.0862 185.134 39.7803 191.205 41.613L192.549 36.1685C187.263 34.5692 182.762 33.7636 179.12 33.7636L179.122 33.7651Z" fill="#19342F"/>
<path d="M230.248 96.5701C242.2 89.7448 254.149 79.4445 263.032 68.3104C268.486 61.4732 277.186 48.6803 274.17 39.8158C273.299 37.2564 271.083 34.0414 265.473 33.2581C261.401 32.6903 255.895 33.4751 249.107 35.5902L250.587 41.6827C256.669 39.7876 261.448 39.0638 264.789 39.5305C267.089 39.8515 268.493 40.7121 268.961 42.0884C270.072 45.3554 267.389 53.4203 258.89 64.0758C250.45 74.654 239.095 84.4416 227.734 90.9294L230.247 96.5715L230.248 96.5701Z" fill="white"/>
<path d="M230.247 96.9029C230.213 96.9029 230.177 96.8969 230.143 96.8865C230.054 96.8568 229.981 96.7914 229.942 96.7052L227.43 91.0631C227.36 90.907 227.421 90.7227 227.57 90.638C238.895 84.1709 250.216 74.4132 258.63 63.8661C267.051 53.3102 269.728 45.3761 268.647 42.1954C268.222 40.9483 266.908 40.1621 264.744 39.8603C261.45 39.3996 256.721 40.1204 250.687 42.0007C250.599 42.0274 250.504 42.0185 250.424 41.9724C250.343 41.9263 250.285 41.8505 250.265 41.7614L248.783 35.6689C248.742 35.4979 248.84 35.324 249.008 35.272C255.843 33.1421 261.398 32.3529 265.518 32.9281C271.295 33.7337 273.582 37.0601 274.484 39.7087C277.552 48.7248 268.788 61.6292 263.291 68.5184C254.383 79.6837 242.4 90.0137 230.412 96.8598C230.361 96.888 230.303 96.9029 230.247 96.9029ZM228.161 91.0675L230.402 96.0973C242.211 89.2914 253.992 79.1055 262.769 68.1022C268.182 61.3185 276.818 48.6386 273.852 39.9228C273.011 37.4525 270.866 34.3475 265.426 33.588C261.462 33.0366 256.108 33.7842 249.504 35.816L250.826 41.259C256.794 39.4278 261.507 38.7337 264.834 39.1989C267.269 39.5378 268.764 40.4742 269.276 41.9798C270.417 45.333 267.728 53.5287 259.15 64.2823C250.75 74.8115 239.47 84.5589 228.161 91.0675Z" fill="#19342F"/>
<path d="M221.088 102.407C251.999 102.752 252.333 58.8189 258.983 23.8232L182.959 23.5422C189.104 59.5487 190.225 102.991 221.088 102.407Z" fill="white"/>
<path d="M220.482 102.746C208.804 102.746 200.394 96.3296 194.781 83.1488C189.726 71.2759 187.366 55.1284 185.084 39.5114C184.315 34.2439 183.519 28.7979 182.632 23.5987C182.615 23.5021 182.642 23.4025 182.706 23.3267C182.77 23.2524 182.862 23.1974 182.961 23.2093L258.985 23.4902C259.085 23.4902 259.178 23.5348 259.241 23.6121C259.303 23.6894 259.33 23.789 259.31 23.8871C258.177 29.8503 257.211 36.1791 256.278 42.2998C254.007 57.1914 251.656 72.5898 246.706 83.9216C241.175 96.5837 232.907 102.743 221.444 102.745C221.325 102.745 221.209 102.745 221.089 102.743C220.886 102.748 220.684 102.749 220.482 102.749V102.746ZM183.354 23.8767C184.215 28.9659 184.992 34.2751 185.743 39.4148C188.019 54.9886 190.372 71.0946 195.393 82.8872C200.962 95.9654 208.937 102.079 220.453 102.08C220.661 102.08 220.869 102.079 221.08 102.074C221.083 102.074 221.086 102.074 221.091 102.074C221.214 102.074 221.337 102.076 221.459 102.076C232.772 102.076 240.606 96.2122 246.094 83.6526C251.01 72.4011 253.353 57.0472 255.619 42.1973C256.532 36.2058 257.477 30.0138 258.581 24.1546L183.355 23.8767H183.354Z" fill="#19342F"/>
<path d="M249.65 64.3911C249.628 64.3911 249.606 64.3896 249.583 64.3836C249.403 64.3465 249.286 64.1711 249.323 63.9898C250.735 57.1214 251.69 49.6258 252.614 42.3785C252.956 39.6971 253.309 36.9236 253.681 34.22C253.706 34.0371 253.872 33.9093 254.057 33.9346C254.239 33.9598 254.367 34.1278 254.342 34.3106C253.97 37.0113 253.617 39.7818 253.275 42.4617C252.35 49.7224 251.393 57.2299 249.977 64.1235C249.944 64.2811 249.806 64.3896 249.652 64.3896L249.65 64.3911Z" fill="#19342F"/>
<path d="M221.752 100.356C221.581 100.356 221.435 100.225 221.42 100.051C221.404 99.8683 221.541 99.7063 221.723 99.6899C233.019 98.7119 240.582 90.708 245.525 74.5025C245.578 74.3271 245.764 74.2275 245.941 74.281C246.116 74.3345 246.216 74.5218 246.162 74.6972C242.995 85.0792 237.023 99.0344 221.781 100.354C221.771 100.354 221.762 100.354 221.752 100.354V100.356Z" fill="#19342F"/>
<path d="M260.741 17.7172H181.935C180.444 17.7172 179.235 18.9263 179.235 20.4178V25.021C179.235 26.5126 180.444 27.7217 181.935 27.7217H260.741C262.232 27.7217 263.44 26.5126 263.44 25.021V20.4178C263.44 18.9263 262.232 17.7172 260.741 17.7172Z" fill="white"/>
<path d="M260.742 28.0547H181.935C180.262 28.0547 178.902 26.6933 178.902 25.0211V20.4179C178.902 18.7443 180.263 17.3843 181.935 17.3843H260.742C262.415 17.3843 263.774 18.7458 263.774 20.4179V25.0211C263.774 26.6947 262.414 28.0547 260.742 28.0547ZM181.935 18.0502C180.63 18.0502 179.568 19.1115 179.568 20.4179V25.0211C179.568 26.3261 180.629 27.3889 181.935 27.3889H260.742C262.047 27.3889 263.109 26.3276 263.109 25.0211V20.4179C263.109 19.1129 262.048 18.0502 260.742 18.0502H181.935Z" fill="#19342F"/>
<path d="M237.511 22.1774C237.328 22.1774 237.179 22.0303 237.178 21.8475C237.176 21.6632 237.323 21.513 237.508 21.5101L253.276 21.3332H253.281C253.463 21.3332 253.612 21.4803 253.613 21.6632C253.615 21.8475 253.468 21.9976 253.284 22.0006L237.515 22.1774H237.511Z" fill="#19342F"/>
<path d="M224.597 22.3217C224.415 22.3217 224.266 22.1746 224.265 21.9918C224.263 21.8075 224.41 21.6573 224.594 21.6544L233.378 21.5563H233.382C233.565 21.5563 233.713 21.7034 233.715 21.8862C233.716 22.0705 233.569 22.2207 233.385 22.2236L224.602 22.3217H224.597Z" fill="#19342F"/>
<path d="M246.607 250.103C246.607 250.103 232.942 220.135 240.78 181.287C240.78 181.287 261.96 199.043 254.325 250.103H246.607Z" fill="white"/>
<path d="M254.323 250.437H246.605C246.474 250.437 246.355 250.361 246.302 250.242C246.268 250.166 242.842 242.573 240.424 230.328C238.196 219.032 236.391 201.343 240.451 181.221C240.475 181.105 240.557 181.012 240.668 180.973C240.778 180.934 240.901 180.957 240.992 181.033C241.21 181.215 246.401 185.649 250.723 196.425C254.699 206.337 258.607 223.704 254.653 250.155C254.629 250.318 254.488 250.438 254.323 250.438V250.437ZM246.823 249.77H254.036C257.899 223.626 254.036 206.471 250.105 196.672C246.551 187.81 242.323 183.235 240.989 181.936C237.103 201.7 238.882 219.054 241.075 230.177C243.262 241.269 246.278 248.512 246.823 249.77Z" fill="black"/>
<path d="M249.948 247.311C249.948 247.311 249.936 247.311 249.93 247.311C249.746 247.301 249.606 247.145 249.615 246.961C250.662 227.791 242.025 186.889 241.937 186.479C241.898 186.299 242.014 186.122 242.194 186.083C242.374 186.045 242.551 186.159 242.589 186.34C242.677 186.752 251.332 227.742 250.281 246.998C250.27 247.175 250.125 247.313 249.948 247.313V247.311Z" fill="black"/>
<path d="M260.354 201.382C260.354 201.382 242.747 233.207 253.339 246.978H259.003C259.003 246.978 270.325 222.1 260.354 201.382Z" fill="white"/>
<path d="M259.003 247.311H253.338C253.234 247.311 253.138 247.264 253.074 247.181C248.611 241.378 248.437 231.867 252.557 218.913C255.61 209.315 260.018 201.299 260.062 201.219C260.123 201.11 260.235 201.037 260.364 201.046C260.489 201.049 260.6 201.122 260.655 201.235C265.845 212.018 265.201 223.921 263.747 232.007C262.174 240.757 259.336 247.051 259.308 247.115C259.254 247.234 259.135 247.31 259.005 247.31L259.003 247.311ZM253.503 246.644H258.785C259.795 244.296 269.184 221.381 260.334 202.124C258.042 206.483 244.142 234.153 253.503 246.644Z" fill="black"/>
<path d="M255.983 248.155C255.804 248.155 255.657 248.014 255.65 247.834C255.299 238.783 257.482 220.325 258.814 210.129C258.838 209.946 259.003 209.817 259.189 209.842C259.371 209.866 259.499 210.034 259.475 210.217C258.146 220.392 255.966 238.806 256.315 247.809C256.323 247.993 256.179 248.148 255.996 248.155C255.992 248.155 255.987 248.155 255.983 248.155Z" fill="black"/>
<path d="M226.739 213.246C226.739 213.246 241.738 218.365 247.168 248.676H241.269C241.269 248.676 228.957 232.031 226.739 213.246Z" fill="white"/>
<path d="M247.167 249.009H241.268C241.162 249.009 241.062 248.958 241 248.874C240.877 248.707 228.611 231.94 226.407 213.285C226.393 213.172 226.439 213.059 226.528 212.986C226.618 212.913 226.736 212.892 226.845 212.93C227.001 212.983 230.73 214.297 235.166 219.374C239.234 224.031 244.676 232.884 247.494 248.617C247.512 248.713 247.485 248.814 247.421 248.889C247.357 248.963 247.264 249.007 247.166 249.007L247.167 249.009ZM241.438 248.342H246.769C243.964 233.041 238.671 224.413 234.705 219.859C231.317 215.968 228.304 214.315 227.14 213.777C229.388 231.148 240.287 246.736 241.44 248.342H241.438Z" fill="black"/>
<path d="M243.943 248.156C243.783 248.156 243.642 248.04 243.615 247.876C241.381 234.367 231.711 220.758 231.614 220.623C231.507 220.473 231.541 220.265 231.69 220.158C231.84 220.051 232.048 220.085 232.155 220.233C232.253 220.37 242.012 234.102 244.272 247.768C244.302 247.949 244.178 248.122 243.997 248.151C243.979 248.154 243.96 248.156 243.942 248.156H243.943Z" fill="black"/>
<path d="M232.525 246.269H269.528L270.358 263.78C270.562 268.072 267.137 271.665 262.841 271.665H241.707C236.624 271.665 232.505 267.54 232.51 262.454L232.525 246.268V246.269Z" fill="white"/>
<path d="M262.84 271.999H241.707C239.159 271.999 236.764 271.006 234.963 269.203C233.163 267.4 232.172 265.004 232.175 262.455L232.19 246.269C232.19 246.085 232.34 245.936 232.522 245.936H269.525C269.704 245.936 269.849 246.076 269.858 246.254L270.689 263.765C270.791 265.933 270.023 267.992 268.526 269.563C267.028 271.134 265.009 271.999 262.839 271.999H262.84ZM232.857 246.604L232.842 262.457C232.839 264.827 233.761 267.055 235.436 268.734C237.11 270.41 239.337 271.335 241.707 271.335H262.84C264.826 271.335 266.675 270.542 268.044 269.105C269.416 267.668 270.118 265.783 270.023 263.799L269.209 246.605H232.857V246.604Z" fill="black"/>
<path d="M38.6423 52.7144C38.5606 52.7144 38.4789 52.6847 38.415 52.6252C38.2798 52.5004 38.2724 52.2893 38.3987 52.1541C58.6733 30.3911 78.3611 21.2487 91.3071 17.411C105.354 13.2477 114.743 14.257 114.837 14.2674C115.02 14.2882 115.15 14.4532 115.129 14.636C115.109 14.8188 114.942 14.9496 114.761 14.9288C114.669 14.9184 105.385 13.9255 91.4571 18.0605C78.6003 21.8774 59.0432 30.9693 38.886 52.6074C38.8206 52.6772 38.7315 52.7129 38.6423 52.7129V52.7144Z" fill="black"/>
<path d="M43.5015 39.1082C43.4094 39.1082 43.3188 39.071 43.2519 38.9967C43.1301 38.8585 43.142 38.6489 43.2802 38.5255C65.4609 18.8063 85.6271 11.5292 98.6399 8.89694C112.762 6.03872 121.767 7.88475 121.856 7.90407C122.036 7.94272 122.152 8.11959 122.113 8.29944C122.074 8.47928 121.899 8.59373 121.718 8.55657C121.63 8.53725 112.728 6.71946 98.7305 9.55985C85.8083 12.1817 65.7758 19.4202 43.7229 39.025C43.659 39.0814 43.5803 39.1097 43.5015 39.1097V39.1082Z" fill="black"/>
<path d="M132.272 4.0145C132.235 4.0145 132.198 4.0145 132.16 4.01153C131.223 3.95802 130.684 3.24458 130.162 2.55344C129.671 1.90242 129.206 1.28856 128.427 1.16223C127.494 1.01211 126.739 1.6869 125.942 2.40034C125.065 3.18364 124.162 3.99518 122.918 3.80939C121.819 3.64589 121.216 2.79125 120.682 2.03916C120.171 1.31829 119.732 0.69403 118.961 0.668763C118.307 0.646468 117.788 1.06859 117.245 1.51449C116.606 2.03768 115.882 2.62924 114.882 2.42412C114.359 2.31711 114.034 2.04957 113.747 1.81324C113.465 1.58137 113.242 1.39707 112.857 1.37774C112.244 1.34653 111.581 1.7523 110.895 2.58316C110.778 2.72436 110.568 2.74517 110.425 2.62775C110.284 2.51033 110.264 2.30076 110.381 2.15807C111.21 1.15628 112.051 0.667276 112.892 0.711866C113.495 0.743079 113.854 1.03737 114.171 1.29748C114.431 1.51151 114.655 1.69582 115.016 1.77014C115.705 1.91134 116.222 1.48773 116.823 0.997243C117.411 0.51567 118.08 -0.0313011 118.983 0.00139826C120.084 0.0385566 120.665 0.859014 121.226 1.65272C121.727 2.36021 122.199 3.02758 123.016 3.14946C123.948 3.28768 124.701 2.61586 125.497 1.90391C126.377 1.11764 127.288 0.304611 128.533 0.505266C129.575 0.673222 130.17 1.45949 130.693 2.15212C131.162 2.77341 131.568 3.30998 132.198 3.34714C133.085 3.40065 134.114 2.43453 135.173 0.56026C135.264 0.399736 135.468 0.343255 135.628 0.433922C135.788 0.524588 135.845 0.728216 135.754 0.88874C134.566 2.9919 133.425 4.01599 132.272 4.01599V4.0145Z" fill="black"/>
<path d="M260.304 101.047C260.288 101.047 260.271 101.047 260.255 101.044C260.072 101.018 259.948 100.848 259.974 100.665L260.356 98.1074C260.383 97.9246 260.555 97.8012 260.735 97.8265C260.918 97.8532 261.042 98.0227 261.016 98.2055L260.634 100.763C260.609 100.928 260.468 101.047 260.304 101.047Z" fill="black"/>
<path d="M259.415 107.004C259.399 107.004 259.383 107.004 259.366 107.001C259.184 106.975 259.059 106.804 259.086 106.622L259.467 104.064C259.494 103.882 259.665 103.757 259.846 103.784C260.029 103.81 260.154 103.98 260.127 104.163L259.745 106.721C259.72 106.885 259.579 107.004 259.415 107.004Z" fill="black"/>
<path d="M258.352 102.493C258.336 102.493 258.319 102.493 258.303 102.49L255.746 102.108C255.564 102.082 255.439 101.912 255.466 101.729C255.492 101.547 255.663 101.422 255.844 101.448L258.401 101.83C258.584 101.857 258.709 102.027 258.682 102.209C258.657 102.374 258.516 102.493 258.352 102.493Z" fill="black"/>
<path d="M264.306 103.382C264.29 103.382 264.274 103.382 264.257 103.379L261.7 102.997C261.518 102.971 261.393 102.801 261.42 102.618C261.446 102.436 261.617 102.311 261.798 102.337L264.355 102.719C264.538 102.746 264.663 102.917 264.636 103.098C264.611 103.263 264.47 103.382 264.306 103.382Z" fill="black"/>
<path d="M148.857 10.7789C148.105 10.7789 147.374 10.5291 146.762 10.055C145.262 8.89121 144.954 6.72413 146.079 5.22442C146.62 4.50206 147.41 4.03832 148.303 3.91793C149.214 3.79605 150.12 4.0413 150.855 4.61205C152.357 5.77585 152.663 7.94292 151.539 9.44264C150.998 10.165 150.208 10.6287 149.315 10.7491C149.162 10.7699 149.009 10.7803 148.857 10.7803V10.7789ZM146.612 5.62276C145.705 6.83412 145.956 8.58502 147.171 9.52736C147.764 9.98664 148.493 10.1873 149.226 10.0877C149.94 9.9911 150.573 9.61951 151.005 9.04133C151.913 7.82996 151.662 6.07906 150.447 5.13672C149.854 4.67745 149.123 4.47828 148.392 4.57638C147.678 4.67299 147.045 5.04457 146.612 5.62276Z" fill="black"/>
</svg>
