<svg width="28" height="30" viewBox="0 0 28 30" fill="none" xmlns="http://www.w3.org/2000/svg">
<path d="M26.6004 0.00012207H16.8004C16.0272 0.00012207 15.4004 0.626923 15.4004 1.40012V15.4001C15.4004 16.1733 16.0272 16.8001 16.8004 16.8001H26.6004C27.3736 16.8001 28.0004 16.1733 28.0004 15.4001V1.40012C28.0004 0.626923 27.3736 0.00012207 26.6004 0.00012207Z" fill="#414141"/>
<path d="M11.2 12.6001H1.4C0.626801 12.6001 0 13.2269 0 14.0001V28.0001C0 28.7733 0.626801 29.4001 1.4 29.4001H11.2C11.9732 29.4001 12.6 28.7733 12.6 28.0001V14.0001C12.6 13.2269 11.9732 12.6001 11.2 12.6001Z" fill="#414141"/>
<path d="M11.2 0.00012207H1.4C0.626801 0.00012207 0 0.626923 0 1.40012V9.80012C0 10.5733 0.626801 11.2001 1.4 11.2001H11.2C11.9732 11.2001 12.6 10.5733 12.6 9.80012V1.40012C12.6 0.626923 11.9732 0.00012207 11.2 0.00012207Z" fill="#414141"/>
<path d="M26.6004 18.2001H16.8004C16.0272 18.2001 15.4004 18.8269 15.4004 19.6001V28.0001C15.4004 28.7733 16.0272 29.4001 16.8004 29.4001H26.6004C27.3736 29.4001 28.0004 28.7733 28.0004 28.0001V19.6001C28.0004 18.8269 27.3736 18.2001 26.6004 18.2001Z" fill="#414141"/>
</svg>
