<svg width="27" height="38" viewBox="0 0 27 38" fill="none" xmlns="http://www.w3.org/2000/svg">
<path d="M18.3643 4.42871L17.1195 3.89909C16.0342 3.43655 15.3329 2.37557 15.3329 1.19612C15.3329 0.536709 14.7963 0.00012207 14.1369 0.00012207H12.6509C11.9915 0.00012207 11.4549 0.536709 11.4549 1.19612C11.4549 2.37557 10.7536 3.43655 9.66827 3.89909L8.4235 4.42958C7.77976 4.70397 7.36426 5.33289 7.36426 6.03237V7.32419H19.4253V6.03237C19.4253 5.33289 19.0089 4.7031 18.3652 4.42958L18.3643 4.42871Z" fill="#414141"/>
<path d="M2.61325 6.60461C1.17248 6.60461 0 7.77709 0 9.21786V35.2789C0 36.7197 1.17248 37.8922 2.61325 37.8922H24.1717C25.6125 37.8922 26.7849 36.7197 26.7849 35.2789V9.21786C26.7849 7.77709 25.6125 6.60461 24.1717 6.60461H21.1656V8.19521C21.1656 8.67605 20.7753 9.0663 20.2945 9.0663H6.49044C6.0096 9.0663 5.61936 8.67605 5.61936 8.19521V6.60461H2.61325ZM22.5942 31.3521H4.18991C3.70907 31.3521 3.31883 30.9618 3.31883 30.481C3.31883 30.0002 3.70907 29.6099 4.18991 29.6099H22.5942C23.075 29.6099 23.4652 30.0002 23.4652 30.481C23.4652 30.9618 23.075 31.3521 22.5942 31.3521ZM22.5942 23.217C23.075 23.217 23.4652 23.6073 23.4652 24.0881C23.4652 24.569 23.075 24.9592 22.5942 24.9592H4.18991C3.70907 24.9592 3.31883 24.569 3.31883 24.0881C3.31883 23.6073 3.70907 23.217 4.18991 23.217H22.5942ZM11.7971 16.3642C12.2779 16.3642 12.6682 16.7545 12.6682 17.2353C12.6682 17.7162 12.2779 18.1064 11.7971 18.1064H4.18991C3.70907 18.1064 3.31883 17.7162 3.31883 17.2353C3.31883 16.7545 3.70907 16.3642 4.18991 16.3642H11.7971Z" fill="#414141"/>
</svg>
