<svg width="28" height="28" viewBox="0 0 28 28" fill="none" xmlns="http://www.w3.org/2000/svg">
<path d="M19.768 9.15527e-05H27.1804C27.6334 9.15527e-05 28.004 0.370712 28.004 0.823692V8.23609C28.004 8.68907 27.6334 9.05969 27.1804 9.05969H19.768C19.315 9.05969 18.9444 8.68907 18.9444 8.23609V0.823692C18.9444 0.370712 19.315 9.15527e-05 19.768 9.15527e-05ZM6.05919 19.3382L10.589 26.7506C10.9225 27.2983 10.5313 28.0025 9.88481 28.0025H0.82521C0.182801 28.0025 -0.212527 27.2983 0.121031 26.7506L4.65083 19.3382C4.97204 18.8111 5.73387 18.8111 6.05507 19.3382H6.05919ZM6.17861 16.4721C6.17861 16.9251 5.80799 17.2957 5.35501 17.2957C4.90203 17.2957 4.53141 16.9251 4.53141 16.4721V9.47149C4.53141 6.51477 6.92809 4.11809 9.88481 4.11809C12.8415 4.11809 15.2382 6.51477 15.2382 9.47149V18.5311C15.2382 20.5777 16.8978 22.2373 18.9444 22.2373C20.9911 22.2373 22.6506 20.5777 22.6506 18.5311V11.5305C22.6506 11.0775 23.0212 10.7069 23.4742 10.7069C23.9272 10.7069 24.2978 11.0775 24.2978 11.5305V18.5311C24.2978 21.4878 21.9011 23.8845 18.9444 23.8845C15.9877 23.8845 13.591 21.4878 13.591 18.5311V9.47149C13.591 7.42485 11.9315 5.76529 9.88481 5.76529C7.83817 5.76529 6.17861 7.42485 6.17861 9.47149V16.4721Z" fill="#414141"/>
</svg>
