<svg width="30" height="22" viewBox="0 0 30 22" fill="none" xmlns="http://www.w3.org/2000/svg">
<path fill-rule="evenodd" clip-rule="evenodd" d="M17.7842 12.6008L17.7225 12.6557L17.6814 12.7242L17.6609 12.803V12.8852L17.6883 12.964L17.7328 13.0325L17.7945 13.0839L17.8699 13.1182L17.9521 13.1284L18.0343 13.1147L18.1097 13.0805L18.5893 12.7721L19.0826 12.4844L19.5863 12.2171L20.1002 11.9705L20.6243 11.7443L21.1588 11.5422L21.7001 11.3606L22.2482 11.1996L22.7998 11.0626L23.3583 10.9495L23.9201 10.8604L24.4854 10.7919L25.0541 10.7474L25.6228 10.7268L25.705 10.7131L25.777 10.6789L25.8387 10.6241L25.8798 10.5555L25.9003 10.4767V10.3945L25.8729 10.3157L25.8284 10.2472L25.7667 10.1958L25.6913 10.1615L25.6091 10.1513L25.0164 10.1718L24.4237 10.2164L23.8345 10.2883L23.2486 10.3842L22.6662 10.5041L22.0906 10.648L21.5219 10.8125L20.9601 11.0009L20.4051 11.2133L19.8603 11.4463L19.3259 11.7032L18.8017 11.9807L18.2912 12.2788L17.7911 12.5974M17.7911 10.0862L17.7294 10.141L17.6883 10.2095L17.6677 10.2883V10.3705L17.6951 10.4493L17.7397 10.5178L17.8013 10.5692L17.8767 10.6035L17.9589 10.6138L18.0412 10.6001L18.1165 10.5658L18.5962 10.2575L19.0895 9.96969L19.5931 9.70247L20.107 9.4558L20.6312 9.22968L21.1656 9.02755L21.7069 8.84597L22.2551 8.68495L22.8067 8.54791L23.3651 8.43486L23.927 8.34578L24.4922 8.27726L25.061 8.23273L25.6297 8.21217L25.7119 8.19847L25.7838 8.16421L25.8455 8.10939L25.8866 8.04087L25.9072 7.96207V7.87985L25.8798 7.80105L25.8352 7.73253L25.7736 7.68114L25.6982 7.64688L25.616 7.63661L25.0233 7.65716L24.4306 7.7017L23.8413 7.77364L23.2555 7.86957L22.6731 7.98948L22.0975 8.13337L21.5288 8.29782L20.9669 8.48625L20.4119 8.69866L19.8672 8.93162L19.3327 9.18857L18.8086 9.46607L18.2981 9.76413L17.7979 10.0827M17.7979 7.57151L17.7362 7.62633L17.6951 7.69485L17.6746 7.77364V7.85587L17.702 7.93467L17.7465 8.00319L17.8082 8.05457L17.8836 8.08883L17.9658 8.09911L18.048 8.08541L18.1234 8.05115L18.603 7.74281L19.0963 7.45503L19.6 7.1878L20.1139 6.94113L20.638 6.71502L21.1725 6.51289L21.7138 6.33131L22.2619 6.17372L22.8135 6.03668L23.372 5.92362L23.9338 5.83455L24.4991 5.76603L25.0678 5.72149L25.6365 5.70093L25.7187 5.68723L25.7907 5.65297L25.8524 5.59816L25.8935 5.52963L25.914 5.45084V5.36861L25.8866 5.28982L25.8421 5.2213L25.7804 5.16991L25.705 5.13565L25.6228 5.12537L25.0301 5.14593L24.4374 5.19046L23.8482 5.26241L23.2623 5.35834L22.6799 5.47825L22.1043 5.62214L21.5356 5.78658L20.9738 5.97501L20.4188 6.18742L19.874 6.42039L19.3396 6.67733L18.8154 6.95484L18.305 7.2529L17.8048 7.57151M17.8048 5.06028L17.7431 5.11509L17.702 5.18361L17.6814 5.26241V5.34463L17.7088 5.42343L17.7534 5.49195L17.815 5.54334L17.8904 5.5776L17.9726 5.58788L18.0549 5.57417L18.1302 5.53991L18.6099 5.23158L19.1032 4.94379L19.6068 4.67657L20.1207 4.4299L20.6449 4.20379L21.1793 4.00165L21.7206 3.82008L22.2688 3.65906L22.8204 3.52202L23.3788 3.40896L23.9407 3.31989L24.506 3.25137L25.0747 3.20683L25.6434 3.18627L25.7256 3.17257L25.7975 3.13831L25.8592 3.08349L25.9003 3.01497L25.9209 2.93618V2.85395L25.8935 2.77516L25.8489 2.70664L25.7873 2.65525L25.7119 2.62441L25.6297 2.61414L25.037 2.63469L24.4443 2.68266L23.855 2.75117L23.2692 2.8471L22.6868 2.96701L22.1112 3.1109L21.5425 3.27535L20.9806 3.46378L20.4256 3.67619L19.8809 3.90915L19.3464 4.1661L18.8223 4.4436L18.3118 4.74166L17.8116 5.06028M13.8752 6.43409V17.4314L13.8615 17.5548L13.8238 17.6713L13.7621 17.7775L13.6799 17.8665L13.5805 17.9351L13.4675 17.983L13.3476 18.0036H13.2242L13.1043 17.9693L12.9947 17.9145L12.4089 17.5479L11.8127 17.2019L11.2029 16.8764L10.5828 16.575L9.95244 16.294L9.31521 16.0371L8.6677 15.8007L8.01334 15.5883L7.35213 15.3964L6.68406 15.2286L6.00915 15.0847L5.33081 14.9648L4.64904 14.8688L3.96385 14.7969L3.27523 14.7489L2.58661 14.7249L2.47698 14.7112L2.37077 14.677L2.27484 14.6256L2.18919 14.5536L2.12067 14.468L2.06928 14.3686L2.03845 14.2624L2.02817 14.1528V2.73404L1.45604 2.74775L0.8839 2.77516V16.5852L1.59308 16.551L2.30225 16.5407L3.01143 16.5578L3.7206 16.5989L4.42635 16.664L5.12867 16.7531L5.82757 16.8662L6.52304 17.0066L7.21166 17.1711L7.89686 17.3595L8.5752 17.5719L9.24326 17.8083L9.90448 18.0653L10.5554 18.3462L11.1961 18.6511L11.8264 18.9766L12.4431 19.326L13.0495 19.696L13.6422 20.0866L14.2212 20.4977L14.7831 20.9294L15.3449 20.4977L15.9239 20.0866L16.5166 19.696L17.123 19.326L17.7397 18.9766L18.37 18.6511L19.0107 18.3462L19.6616 18.0653L20.3228 17.8083L20.9909 17.5719L21.6693 17.3595L22.3544 17.1711L23.0431 17.0066L23.7385 16.8662L24.4374 16.7531L25.1432 16.664L25.8489 16.5989L26.5581 16.5578L27.2673 16.5407L27.9765 16.551L28.6856 16.5852V2.77516L28.1135 2.74775L27.5414 2.73404V14.1459L27.5311 14.2556L27.5002 14.3618L27.4489 14.4611L27.3803 14.5468L27.2947 14.6187L27.1988 14.6701L27.0926 14.7044L26.9829 14.7181L26.2943 14.7421L25.6057 14.79L24.9205 14.862L24.2387 14.9579L23.5604 15.0778L22.8855 15.2217L22.2174 15.3896L21.5562 15.5814L20.9018 15.7938L20.2543 16.0302L19.6171 16.2872L18.9867 16.5681L18.3666 16.8696L17.7568 17.1951L17.1607 17.5411L16.5748 17.9077L16.4652 17.9625L16.3453 17.9933H16.222L16.1021 17.9762L15.989 17.9282L15.8896 17.8597L15.8074 17.7706L15.7458 17.6644L15.7081 17.5479L15.6944 17.4246V6.43752L15.1257 6.85549L15.0366 6.9103L14.9372 6.94799L14.8344 6.96854H14.7282L14.6255 6.94799L14.5261 6.9103L14.437 6.85549L13.8683 6.43752M11.7579 12.6008L11.2577 12.2822L10.7473 11.9842L10.2231 11.7067L9.68864 11.4497L9.14391 11.2167L8.5889 11.0043L8.02704 10.8159L7.45833 10.6515L6.88277 10.5076L6.30036 10.3877L5.71452 10.2917L5.12525 10.2198L4.53256 10.1752L3.93986 10.1547L3.85764 10.165L3.78227 10.1992L3.7206 10.2506L3.67606 10.3191L3.65208 10.3979V10.4802L3.67264 10.559L3.71375 10.6275L3.77542 10.6823L3.85079 10.7166L3.93301 10.7303L4.50172 10.7508L5.07043 10.7953L5.63572 10.8639L6.19758 10.9529L6.75601 11.066L7.30759 11.203L7.85575 11.3641L8.39705 11.5456L8.92807 11.7478L9.45225 11.9739L9.96614 12.2206L10.4698 12.4878L10.9631 12.7756L11.4427 13.0839L11.5181 13.1182L11.6003 13.1319L11.6826 13.1216L11.7579 13.0873L11.8196 13.0359L11.8641 12.9674L11.8881 12.8886V12.8064L11.8676 12.7276L11.8264 12.6591L11.7648 12.6043M11.7648 10.093L11.2646 9.77098L10.7541 9.47293L10.2299 9.19542L9.69549 8.93847L9.15076 8.70551L8.59576 8.4931L8.0339 8.30467L7.46519 8.14022L6.88962 7.99633L6.30721 7.87642L5.72137 7.7805L5.1321 7.70855L4.53941 7.66401L3.94672 7.64346L3.86449 7.65374L3.78912 7.688L3.72745 7.73939L3.68292 7.8079L3.65893 7.8867V7.96892L3.67949 8.04772L3.7206 8.11624L3.78227 8.17106L3.85764 8.20532L3.93986 8.21902L4.50857 8.23958L5.07729 8.28411L5.64257 8.35263L6.20443 8.44171L6.76286 8.55477L7.31444 8.6918L7.8626 8.85283L8.4039 9.0344L8.93493 9.23653L9.4591 9.46265L9.97299 9.70932L10.4766 9.97654L10.97 10.2643L11.4496 10.5727L11.525 10.6069L11.6072 10.6206L11.6894 10.6103L11.7648 10.5761L11.8264 10.5247L11.871 10.4562L11.895 10.3774V10.2952L11.8744 10.2164L11.8333 10.1478L11.7716 10.093M11.7716 7.58179L11.2714 7.26318L10.761 6.96512L10.2368 6.68761L9.70234 6.43067L9.15761 6.1977L8.60261 5.98529L8.04075 5.79686L7.47204 5.63241L6.89648 5.48852L6.31406 5.36861L5.72822 5.27269L5.13895 5.20074L4.54626 5.1562L3.95357 5.13565L3.87134 5.14593L3.79597 5.18019L3.73431 5.23158L3.68977 5.3001L3.66579 5.37889V5.46112L3.68634 5.53991L3.72745 5.60843L3.78912 5.66325L3.86449 5.69751L3.94672 5.71121L4.51543 5.73177L5.08414 5.77631L5.64942 5.84482L6.21128 5.9339L6.76971 6.04696L7.3213 6.184L7.86945 6.34159L8.41075 6.52317L8.94178 6.7253L9.46595 6.95141L9.97985 7.19808L10.4835 7.46531L10.9768 7.75309L11.4564 8.06143L11.5318 8.09569L11.614 8.10939L11.6963 8.09911L11.7716 8.06485L11.8333 8.01346L11.8778 7.94494L11.9018 7.86615V7.78392L11.8813 7.70513L11.8401 7.63661L11.7785 7.58179M11.7785 5.07056L11.2783 4.75194L10.7678 4.45388L10.2436 4.17638L9.7092 3.91943L9.16447 3.68646L8.60946 3.47405L8.0476 3.28563L7.47889 3.12118L6.90333 2.97729L6.32091 2.86081L5.73507 2.76488L5.1458 2.69636L4.55311 2.6484L3.96042 2.62784L3.8782 2.63812L3.80283 2.66895L3.74116 2.72034L3.69662 2.78886L3.67264 2.86766V2.94988L3.69319 3.02868L3.73431 3.0972L3.79597 3.15201L3.87134 3.18627L3.95357 3.19998L4.52228 3.22053L5.09099 3.26507L5.65627 3.33359L6.21813 3.42266L6.77657 3.53572L7.32815 3.67276L7.8763 3.83378L8.4176 4.01536L8.94863 4.21749L9.4728 4.4436L9.9867 4.69027L10.4903 4.9575L10.9837 5.24528L11.4633 5.55362L11.5387 5.58788L11.6209 5.60158L11.7031 5.5913L11.7785 5.55704L11.8401 5.50565L11.8847 5.43713L11.9087 5.35834V5.27611L11.8881 5.19732L11.847 5.1288L11.7853 5.07398M13.6388 3.43637L13.7279 3.50831L13.7998 3.59396L13.8512 3.69332L13.8855 3.79952L13.8957 3.91258V5.34121L14.3582 5.6564L14.8105 5.98186L15.2627 5.6564L15.7252 5.34121V3.91258L15.7355 3.79952L15.7697 3.69332L15.8211 3.59396L15.8931 3.50831L15.9821 3.43637L16.5988 3.04238L17.2292 2.67238L17.8699 2.32635L18.5242 2.00089L19.1889 1.6994L19.8638 1.4219L20.549 1.16838L21.241 0.938837L21.9399 0.733279L22.6491 0.555129L23.3617 0.40096L24.0811 0.270774L24.804 0.164569L25.5303 0.0857713L26.2566 0.0309558L26.9864 0.00354804L27.0994 0.0104L27.209 0.0412337L27.3084 0.0926232L27.3975 0.164569L27.4694 0.250218L27.5242 0.349571L27.5585 0.459202L27.5688 0.572259V1.82616L28.0792 1.83644L28.5897 1.86042L29.1002 1.89468L29.2201 1.91866L29.3331 1.96663L29.4325 2.03515L29.5147 2.12422L29.5764 2.23043L29.6141 2.34348L29.6278 2.46339V16.9587L29.6141 17.0751L29.5764 17.1882L29.5181 17.291L29.4393 17.3801L29.3434 17.452L29.2372 17.5L29.1242 17.5274H29.0077L28.3019 17.4828L27.5962 17.4623L26.8904 17.4691L26.1847 17.5L25.4789 17.5582L24.7766 17.6404L24.0777 17.7501L23.3822 17.8837L22.6936 18.0447L22.0118 18.2297L21.3369 18.4387L20.6689 18.6716L20.0111 18.9286L19.3636 19.2095L18.7263 19.5144L18.0994 19.8433L17.4861 20.1962L16.8866 20.5696L16.3008 20.9636L15.7286 21.3782L15.1736 21.8167L15.0811 21.8784L14.9783 21.9195L14.8687 21.94H14.7556L14.646 21.9195L14.5432 21.8784L14.4507 21.8167L13.8957 21.3782L13.3236 20.9636L12.7378 20.5696L12.1382 20.1962L11.525 19.8433L10.898 19.5144L10.2608 19.2095L9.61327 18.9286L8.95548 18.6716L8.28742 18.4387L7.6125 18.2297L6.93073 18.0447L6.24211 17.8837L5.55007 17.7501L4.85117 17.6404L4.14885 17.5582L3.4431 17.5L2.73735 17.4691L2.0316 17.4623L1.32585 17.4828L0.6201 17.5308H0.503617L0.387134 17.5034L0.280929 17.4554L0.185002 17.3835L0.106205 17.2944L0.0479636 17.1916L0.0102779 17.0786L0 16.9621V2.45654L0.0137039 2.33663L0.0513895 2.22358L0.113057 2.11737L0.19528 2.0283L0.294633 1.95978L0.40769 1.91181L0.527599 1.88783L1.03807 1.85357L1.54854 1.82959L2.05901 1.81931V0.568833L2.06928 0.455776L2.10354 0.346145L2.15836 0.246792L2.23031 0.161143L2.31938 0.0891973L2.41873 0.0378077L2.52836 0.00697401L2.64142 0.00012207L3.37115 0.0275298L4.09746 0.0823453L4.82376 0.161143L5.54664 0.267348L6.2661 0.397534L6.9787 0.551703L7.68787 0.729853L8.3902 0.935412L9.08224 1.16495L9.76744 1.41847L10.4424 1.69598L11.107 1.99746L11.7614 2.32293L12.4054 2.66895L13.0358 3.03896L13.6525 3.42952" fill="#414141"/>
</svg>
